<?xml version="1.0" encoding="utf-8"?>
<!-- Generator: Adobe Illustrator 24.1.3, SVG Export Plug-In . SVG Version: 6.00 Build 0)  -->
<svg version="1.1" id="Layer_1" xmlns="http://www.w3.org/2000/svg" xmlns:xlink="http://www.w3.org/1999/xlink" x="0px" y="0px"
	 viewBox="0 0 16 16" style="enable-background:new 0 0 16 16;" xml:space="preserve">
<style type="text/css">
	.st0{fill:#F2AA22;}
	.st1{fill:#008CBF;}
	.st2{fill:#D9322E;}
</style>
<g>
	<g>
		<rect x="11.07" y="0.01" class="st0" width="4.3" height="5.79"/>
		<polygon class="st1" points="15.36,16 15.36,11.74 10.15,11.74 10.15,0.01 5.83,0.01 5.83,16 		"/>
		<rect x="0.62" y="5.12" class="st2" width="4.3" height="10.88"/>
		<path class="st2" d="M2.78,0c1.17,0,2.13,0.97,2.13,2.15c0,1.17-0.97,2.15-2.16,2.15c-1.17,0-2.13-0.97-2.13-2.15
			C0.62,0.97,1.58,0,2.78,0"/>
		<path class="st0" d="M13.25,6.63c1.17,0,2.13,0.97,2.13,2.15s-0.97,2.15-2.16,2.15c-1.17,0-2.13-0.97-2.13-2.15
			S12.05,6.63,13.25,6.63"/>
	</g>
</g>
</svg>
